<svg xmlns="http://www.w3.org/2000/svg" width="706px" height="427px" xmlns:xlink="http://www.w3.org/1999/xlink" version="1.1"><defs/><g transform="translate(0.5,0.5)"><path d="M 2 242 L 2 162 C 2 151 20 142 42 142 C 64 142 82 151 82 162 L 82 242 C 82 253 64 262 42 262 C 20 262 2 253 2 242 Z" fill="#d0d0d0" stroke="#d0d0d0" stroke-width="2" stroke-miterlimit="10" transform="translate(2,3)" opacity="1"/><path d="M 2 242 L 2 162 C 2 151 20 142 42 142 C 64 142 82 151 82 162 L 82 242 C 82 253 64 262 42 262 C 20 262 2 253 2 242 Z" fill="#b9e0a5" stroke="#000000" stroke-width="2" stroke-miterlimit="10" pointer-events="none"/><path d="M 2 162 C 2 173 20 182 42 182 C 64 182 82 173 82 162" fill="none" stroke="#000000" stroke-width="2" stroke-miterlimit="10" pointer-events="none"/><g text-anchor="middle" font-size="12px"><text x="42" y="206" fill="#000000" font-family="Helvetica">Database</text></g><rect x="172" y="2" width="130" height="420" rx="8" ry="8" fill="#d0d0d0" stroke="#d0d0d0" stroke-width="2" transform="translate(2,3)" opacity="1"/><rect x="172" y="2" width="130" height="420" rx="8" ry="8" fill="#a9c4eb" stroke="#000000" stroke-width="2" pointer-events="none"/><g text-anchor="middle" font-size="12px"><text x="237" y="216" fill="#000000" font-family="Helvetica">Server</text></g><rect x="502" y="12" width="200" height="100" fill="#d0d0d0" stroke="#d0d0d0" transform="translate(2,3)" opacity="1"/><rect x="502" y="12" width="200" height="100" fill="#fff2cc" stroke="#000000" pointer-events="none"/><ellipse cx="637" cy="27" rx="10" ry="10" fill="transparent" stroke="#000000" pointer-events="none"/><ellipse cx="662" cy="27" rx="10" ry="10" fill="transparent" stroke="#000000" pointer-events="none"/><ellipse cx="687" cy="27" rx="10" ry="10" fill="transparent" stroke="#008cff" pointer-events="none"/><g font-size="17px"/><path d="M 502 42 L 702 42" fill="none" stroke="#c4c4c4" stroke-miterlimit="10" pointer-events="none"/><g font-size="17px"><text x="512" y="35" fill="#666666" font-family="Helvetica">Browser</text></g><rect x="502" y="152" width="200" height="100" fill="#d0d0d0" stroke="#d0d0d0" transform="translate(2,3)" opacity="1"/><rect x="502" y="152" width="200" height="100" fill="#ffffcc" stroke="#000000" pointer-events="none"/><ellipse cx="637" cy="167" rx="10" ry="10" fill="transparent" stroke="#000000" pointer-events="none"/><ellipse cx="662" cy="167" rx="10" ry="10" fill="transparent" stroke="#000000" pointer-events="none"/><ellipse cx="687" cy="167" rx="10" ry="10" fill="transparent" stroke="#008cff" pointer-events="none"/><g font-size="17px"/><path d="M 502 182 L 702 182" fill="none" stroke="#c4c4c4" stroke-miterlimit="10" pointer-events="none"/><g font-size="17px"><text x="512" y="175" fill="#666666" font-family="Helvetica">Index page</text></g><rect x="502" y="292" width="200" height="100" fill="#d0d0d0" stroke="#d0d0d0" transform="translate(2,3)" opacity="1"/><rect x="502" y="292" width="200" height="100" fill="#ffffcc" stroke="#000000" pointer-events="none"/><ellipse cx="637" cy="307" rx="10" ry="10" fill="transparent" stroke="#000000" pointer-events="none"/><ellipse cx="662" cy="307" rx="10" ry="10" fill="transparent" stroke="#000000" pointer-events="none"/><ellipse cx="687" cy="307" rx="10" ry="10" fill="transparent" stroke="#008cff" pointer-events="none"/><g font-size="17px"/><path d="M 502 322 L 702 322" fill="none" stroke="#c4c4c4" stroke-miterlimit="10" pointer-events="none"/><g font-size="17px"><text x="512" y="315" fill="#666666" font-family="Helvetica">Products page</text></g><path d="M 492 52 L 322 52" fill="none" stroke="#ff0000" stroke-width="3" stroke-miterlimit="10" pointer-events="none"/><path d="M 315 52 L 324 48 L 322 52 L 324 57 Z" fill="#ff0000" stroke="#ff0000" stroke-width="3" stroke-miterlimit="10" pointer-events="none"/><g text-anchor="middle" font-size="11px"><rect fill="#ffffff" stroke="none" x="353" y="46" width="100" height="14" stroke-width="0"/><text x="402" y="56" fill="#000000" font-family="Helvetica">Request Index page</text></g><path d="M 312 82 L 483 177" fill="none" stroke="#0000cc" stroke-width="3" stroke-miterlimit="10" pointer-events="none"/><path d="M 489 180 L 479 180 L 483 177 L 483 172 Z" fill="#0000cc" stroke="#0000cc" stroke-width="3" stroke-miterlimit="10" pointer-events="none"/><g text-anchor="middle" font-size="11px"><rect fill="#ffffff" stroke="none" x="348" y="126" width="109" height="14" stroke-width="0"/><text x="402" y="136" fill="#000000" font-family="Helvetica">Response Index page</text></g><path d="M 492 222 L 322 222" fill="none" stroke="#ff0000" stroke-width="3" stroke-miterlimit="10" pointer-events="none"/><path d="M 315 222 L 324 218 L 322 222 L 324 227 Z" fill="#ff0000" stroke="#ff0000" stroke-width="3" stroke-miterlimit="10" pointer-events="none"/><g text-anchor="middle" font-size="11px"><rect fill="#ffffff" stroke="none" x="344" y="216" width="117" height="14" stroke-width="0"/><text x="402" y="226" fill="#000000" font-family="Helvetica">Request Products page</text></g><rect x="512" y="192" width="50" height="20" fill="none" stroke="none" pointer-events="none"/><g font-size="12px"><text x="514" y="205" fill="#0000FF" font-family="Helvetica" text-decoration="underline">Products</text></g><path d="M 312 250 L 483 345" fill="none" stroke="#0000ff" stroke-width="3" stroke-miterlimit="10" pointer-events="none"/><path d="M 489 348 L 479 348 L 483 345 L 483 340 Z" fill="#0000ff" stroke="#0000ff" stroke-width="3" stroke-miterlimit="10" pointer-events="none"/><g text-anchor="middle" font-size="11px"><rect fill="#ffffff" stroke="none" x="340" y="294" width="126" height="14" stroke-width="0"/><text x="402" y="304" fill="#000000" font-family="Helvetica">Response Products page</text></g><path d="M 162 102 L 99 174" fill="none" stroke="#000000" stroke-width="3" stroke-miterlimit="10" pointer-events="none"/><path d="M 94 179 L 97 170 L 99 174 L 104 176 Z" fill="#000000" stroke="#000000" stroke-width="3" stroke-miterlimit="10" pointer-events="none"/><g text-anchor="middle" font-size="11px"><rect fill="#ffffff" stroke="none" x="111" y="136" width="34" height="14" stroke-width="0"/><text x="127" y="146" fill="#000000" font-family="Helvetica">CRUD</text></g><path d="M 92 222 L 156 314" fill="none" stroke="#000000" stroke-width="3" stroke-miterlimit="10" pointer-events="none"/><path d="M 160 319 L 151 314 L 156 314 L 159 309 Z" fill="#000000" stroke="#000000" stroke-width="3" stroke-miterlimit="10" pointer-events="none"/><g text-anchor="middle" font-size="11px"><rect fill="#ffffff" stroke="none" x="111" y="266" width="33" height="14" stroke-width="0"/><text x="127" y="276" fill="#000000" font-family="Helvetica">Result</text></g></g></svg>